<svg width="57" height="41" viewBox="0 0 57 41" fill="none" xmlns="http://www.w3.org/2000/svg">
<path d="M0.364798 0.287404C0.843597 -0.0898139 1.63019 -0.0898139 2.12039 0.287404L28.4999 21.0793L54.8908 0.287404C55.1188 0.107776 55.438 0 55.7686 0C56.4526 0 57.0112 0.440087 56.9998 0.97897V18.5465C56.9998 18.807 56.8744 19.0495 56.635 19.2381L29.3777 40.7126C29.1497 40.8922 28.8305 41 28.4999 41C28.1693 41 27.8615 40.9012 27.6221 40.7126L0.364798 19.2381C0.136799 19.0585 -1.56843e-06 18.807 -1.56843e-06 18.5465V0.97897C-1.56843e-06 0.71851 0.125399 0.467032 0.364798 0.287404ZM2.47379 18.1514L28.4999 38.6469L54.526 18.1514V3.33209L29.3777 23.145C28.8989 23.5222 28.1123 23.5222 27.6221 23.145L2.47379 3.33209V18.1514Z" fill="white"/>
</svg>
