<svg width="146" height="166" viewBox="0 0 146 166" fill="none" xmlns="http://www.w3.org/2000/svg">
<path d="M35.5938 154.3L37.6938 146.78H41.8738L38.0138 158H33.1338L29.2738 146.78H33.4538L35.5938 154.3ZM45.182 145.74C44.4887 145.74 43.9287 145.553 43.502 145.18C43.0887 144.793 42.882 144.313 42.882 143.74C42.882 143.153 43.0887 142.667 43.502 142.28C43.9287 141.893 44.4887 141.7 45.182 141.7C45.862 141.7 46.4087 141.893 46.822 142.28C47.2487 142.667 47.462 143.153 47.462 143.74C47.462 144.313 47.2487 144.793 46.822 145.18C46.4087 145.553 45.862 145.74 45.182 145.74ZM47.122 146.78V158H43.202V146.78H47.122ZM56.6944 146.68C57.9877 146.68 59.0144 147.113 59.7744 147.98C60.5344 148.833 60.9144 149.993 60.9144 151.46V158H56.9944V151.98C56.9944 151.34 56.8277 150.84 56.4944 150.48C56.161 150.107 55.7144 149.92 55.1544 149.92C54.5677 149.92 54.1077 150.107 53.7744 150.48C53.441 150.84 53.2744 151.34 53.2744 151.98V158H49.3544V146.78H53.2744V148.38C53.621 147.873 54.0877 147.467 54.6744 147.16C55.261 146.84 55.9344 146.68 56.6944 146.68ZM73.7853 152.26C73.7853 152.567 73.7653 152.873 73.7253 153.18H66.3053C66.3453 153.793 66.512 154.253 66.8053 154.56C67.112 154.853 67.4986 155 67.9653 155C68.6186 155 69.0853 154.707 69.3653 154.12H73.5453C73.372 154.893 73.032 155.587 72.5253 156.2C72.032 156.8 71.4053 157.273 70.6453 157.62C69.8853 157.967 69.0453 158.14 68.1253 158.14C67.0186 158.14 66.032 157.907 65.1653 157.44C64.312 156.973 63.6386 156.307 63.1453 155.44C62.6653 154.573 62.4253 153.553 62.4253 152.38C62.4253 151.207 62.6653 150.193 63.1453 149.34C63.6253 148.473 64.292 147.807 65.1453 147.34C66.012 146.873 67.0053 146.64 68.1253 146.64C69.232 146.64 70.212 146.867 71.0653 147.32C71.9186 147.773 72.5853 148.427 73.0653 149.28C73.5453 150.12 73.7853 151.113 73.7853 152.26ZM69.7853 151.28C69.7853 150.8 69.6253 150.427 69.3053 150.16C68.9853 149.88 68.5853 149.74 68.1053 149.74C67.6253 149.74 67.232 149.873 66.9253 150.14C66.6186 150.393 66.4186 150.773 66.3253 151.28H69.7853ZM82.0095 154.66V158H80.3095C77.4429 158 76.0095 156.58 76.0095 153.74V150.04H74.6295V146.78H76.0095V144.06H79.9495V146.78H81.9895V150.04H79.9495V153.8C79.9495 154.107 80.0162 154.327 80.1495 154.46C80.2962 154.593 80.5362 154.66 80.8695 154.66H82.0095ZM87.7275 148.76C88.1675 148.12 88.7008 147.613 89.3275 147.24C89.9542 146.867 90.6275 146.68 91.3475 146.68V150.86H90.2475C89.3942 150.86 88.7608 151.027 88.3475 151.36C87.9342 151.693 87.7275 152.273 87.7275 153.1V158H83.8075V146.78H87.7275V148.76ZM103.473 152.26C103.473 152.567 103.453 152.873 103.413 153.18H95.9928C96.0328 153.793 96.1995 154.253 96.4928 154.56C96.7995 154.853 97.1861 155 97.6528 155C98.3061 155 98.7728 154.707 99.0528 154.12H103.233C103.059 154.893 102.719 155.587 102.213 156.2C101.719 156.8 101.093 157.273 100.333 157.62C99.5728 157.967 98.7328 158.14 97.8128 158.14C96.7061 158.14 95.7195 157.907 94.8528 157.44C93.9995 156.973 93.3261 156.307 92.8328 155.44C92.3528 154.573 92.1128 153.553 92.1128 152.38C92.1128 151.207 92.3528 150.193 92.8328 149.34C93.3128 148.473 93.9795 147.807 94.8328 147.34C95.6995 146.873 96.6928 146.64 97.8128 146.64C98.9195 146.64 99.8995 146.867 100.753 147.32C101.606 147.773 102.273 148.427 102.753 149.28C103.233 150.12 103.473 151.113 103.473 152.26ZM99.4728 151.28C99.4728 150.8 99.3128 150.427 98.9928 150.16C98.6728 149.88 98.2728 149.74 97.7928 149.74C97.3128 149.74 96.9195 149.873 96.6128 150.14C96.3061 150.393 96.1061 150.773 96.0128 151.28H99.4728ZM112.097 158L108.997 153.4V158H105.077V143.2H108.997V151.18L112.097 146.78H116.797L112.377 152.42L116.877 158H112.097Z" fill="white"/>
<path d="M108.546 63.4911L108.418 63.5403C103.916 65.2661 99.6849 67.5227 95.8349 70.2517C82.5318 79.7654 74.8492 94.6895 74.8237 116.2C74.8196 119.694 74.9821 122.984 75.3114 126.069H57.5415C57.2429 122.905 57.0954 119.609 57.099 116.183C57.1304 89.8512 67.2156 70.2599 84.8534 57.6462C90.6242 53.5505 97.0362 50.2564 103.878 47.8724C106.001 52.5293 107.557 57.7355 108.546 63.4911Z" fill="#CCCCCC"/>
<path d="M60.5703 57.6462C78.2081 70.2599 88.2933 89.8511 88.3247 116.183C88.3286 119.609 88.1811 122.904 87.8821 126.069H70.1123C70.4423 122.982 70.6049 119.693 70.6 116.2C70.5745 94.6895 62.8918 79.7654 49.5888 70.2517C45.9358 67.6604 41.9376 65.4958 37.6884 63.8088C38.8797 58.0957 40.6122 52.945 42.886 48.3568C49.2295 50.6919 55.1817 53.8186 60.5703 57.6462V57.6462Z" fill="white"/>
<path d="M27.0495 10.3149L41.219 21.0174C15.951 42.6901 15.4651 89.4884 25.4388 126.069H7.70978C-3.50906 89.7047 -1.94006 37.5569 27.0495 10.3149Z" fill="white"/>
<path d="M118.613 10C147.928 37.1533 149.552 89.5644 138.29 126.069H120.561C130.579 89.327 130.045 42.2741 104.443 20.7298L118.613 10Z" fill="#CCCCCC"/>
</svg>
